# Blender v2.79 (sub 0) OBJ File: 'helmetDisney.blend'
# www.blender.org
o Cube_Cube.001
v -1.574192 -5.970325 11.709616
v -28.086760 -5.970325 -29.146839
v -17.228317 -5.970325 -36.193100
v 9.284250 -5.970325 4.663355
v -1.574192 3.282307 11.709616
v -28.086760 3.282307 -29.146839
v -17.228317 3.282307 -36.193100
v 9.284250 3.282307 4.663355
vn -0.8389 0.0000 0.5444
vn -0.5444 0.0000 -0.8389
vn 0.8389 0.0000 -0.5444
vn 0.0000 -1.0000 0.0000
vn 0.0000 1.0000 0.0000
s off
f 5//1 6//1 2//1 1//1
f 6//2 7//2 3//2 2//2
f 7//3 8//3 4//3 3//3
f 1//4 2//4 3//4 4//4
f 8//5 7//5 6//5 5//5
